ModelForces
version=1
nRows=4
nColumns=206
inDegrees=no

This file contains the forces exerted on a model during a simulation.

A force is a generalized force, meaning that it can be either a force (N) or a torque (Nm).

Units are S.I. units (second, meters, Newtons, ...)
Angles are in degrees.

endheader
time	glut_med1_r	glut_med2_r	glut_med3_r	glut_min1_r	glut_min2_r	glut_min3_r	semimem_r	semiten_r	bifemlh_r	bifemsh_r	sar_r	add_long_r	add_brev_r	add_mag1_r	add_mag2_r	add_mag3_r	tfl_r	pect_r	grac_r	glut_max1_r	glut_max2_r	glut_max3_r	iliacus_r	psoas_r	quad_fem_r	gem_r	peri_r	rect_fem_r	vas_med_r	vas_int_r	vas_lat_r	med_gas_r	lat_gas_r	soleus_r	tib_post_r	flex_dig_r	flex_hal_r	tib_ant_r	per_brev_r	per_long_r	per_tert_r	ext_dig_r	ext_hal_r	glut_med1_l	glut_med2_l	glut_med3_l	glut_min1_l	glut_min2_l	glut_min3_l	semimem_l	semiten_l	bifemlh_l	bifemsh_l	sar_l	add_long_l	add_brev_l	add_mag1_l	add_mag2_l	add_mag3_l	tfl_l	pect_l	grac_l	glut_max1_l	glut_max2_l	glut_max3_l	iliacus_l	psoas_l	quad_fem_l	gem_l	peri_l	rect_fem_l	vas_med_l	vas_int_l	vas_lat_l	med_gas_l	lat_gas_l	soleus_l	tib_post_l	flex_dig_l	flex_hal_l	tib_ant_l	per_brev_l	per_long_l	per_tert_l	ext_dig_l	ext_hal_l	ercspn_r	ercspn_l	intobl_r	intobl_l	extobl_r	extobl_l	femur_lat_meniscii_l.femur_lat_l.force.X	femur_lat_meniscii_l.femur_lat_l.force.Y	femur_lat_meniscii_l.femur_lat_l.force.Z	femur_lat_meniscii_l.femur_lat_l.torque.X	femur_lat_meniscii_l.femur_lat_l.torque.Y	femur_lat_meniscii_l.femur_lat_l.torque.Z	femur_lat_meniscii_l.meniscus_lat_l.force.X	femur_lat_meniscii_l.meniscus_lat_l.force.Y	femur_lat_meniscii_l.meniscus_lat_l.force.Z	femur_lat_meniscii_l.meniscus_lat_l.torque.X	femur_lat_meniscii_l.meniscus_lat_l.torque.Y	femur_lat_meniscii_l.meniscus_lat_l.torque.Z	femur_med_meniscii_l.femur_med_l.force.X	femur_med_meniscii_l.femur_med_l.force.Y	femur_med_meniscii_l.femur_med_l.force.Z	femur_med_meniscii_l.femur_med_l.torque.X	femur_med_meniscii_l.femur_med_l.torque.Y	femur_med_meniscii_l.femur_med_l.torque.Z	femur_med_meniscii_l.meniscus_med_l.force.X	femur_med_meniscii_l.meniscus_med_l.force.Y	femur_med_meniscii_l.meniscus_med_l.force.Z	femur_med_meniscii_l.meniscus_med_l.torque.X	femur_med_meniscii_l.meniscus_med_l.torque.Y	femur_med_meniscii_l.meniscus_med_l.torque.Z	femur_lat_meniscii_r.femur_lat_r.force.X	femur_lat_meniscii_r.femur_lat_r.force.Y	femur_lat_meniscii_r.femur_lat_r.force.Z	femur_lat_meniscii_r.femur_lat_r.torque.X	femur_lat_meniscii_r.femur_lat_r.torque.Y	femur_lat_meniscii_r.femur_lat_r.torque.Z	femur_lat_meniscii_r.meniscus_lat_r.force.X	femur_lat_meniscii_r.meniscus_lat_r.force.Y	femur_lat_meniscii_r.meniscus_lat_r.force.Z	femur_lat_meniscii_r.meniscus_lat_r.torque.X	femur_lat_meniscii_r.meniscus_lat_r.torque.Y	femur_lat_meniscii_r.meniscus_lat_r.torque.Z	femur_med_meniscii_r.femur_med_r.force.X	femur_med_meniscii_r.femur_med_r.force.Y	femur_med_meniscii_r.femur_med_r.force.Z	femur_med_meniscii_r.femur_med_r.torque.X	femur_med_meniscii_r.femur_med_r.torque.Y	femur_med_meniscii_r.femur_med_r.torque.Z	femur_med_meniscii_r.meniscus_med_r.force.X	femur_med_meniscii_r.meniscus_med_r.force.Y	femur_med_meniscii_r.meniscus_med_r.force.Z	femur_med_meniscii_r.meniscus_med_r.torque.X	femur_med_meniscii_r.meniscus_med_r.torque.Y	femur_med_meniscii_r.meniscus_med_r.torque.Z	femur_med_tibia_l.tibia_upper_l.force.X	femur_med_tibia_l.tibia_upper_l.force.Y	femur_med_tibia_l.tibia_upper_l.force.Z	femur_med_tibia_l.tibia_upper_l.torque.X	femur_med_tibia_l.tibia_upper_l.torque.Y	femur_med_tibia_l.tibia_upper_l.torque.Z	femur_med_tibia_l.femur_med_l.force.X	femur_med_tibia_l.femur_med_l.force.Y	femur_med_tibia_l.femur_med_l.force.Z	femur_med_tibia_l.femur_med_l.torque.X	femur_med_tibia_l.femur_med_l.torque.Y	femur_med_tibia_l.femur_med_l.torque.Z	femur_lat_tibia_l.tibia_upper_l.force.X	femur_lat_tibia_l.tibia_upper_l.force.Y	femur_lat_tibia_l.tibia_upper_l.force.Z	femur_lat_tibia_l.tibia_upper_l.torque.X	femur_lat_tibia_l.tibia_upper_l.torque.Y	femur_lat_tibia_l.tibia_upper_l.torque.Z	femur_lat_tibia_l.femur_lat_l.force.X	femur_lat_tibia_l.femur_lat_l.force.Y	femur_lat_tibia_l.femur_lat_l.force.Z	femur_lat_tibia_l.femur_lat_l.torque.X	femur_lat_tibia_l.femur_lat_l.torque.Y	femur_lat_tibia_l.femur_lat_l.torque.Z	femur_med_tibia_r.tibia_upper_r.force.X	femur_med_tibia_r.tibia_upper_r.force.Y	femur_med_tibia_r.tibia_upper_r.force.Z	femur_med_tibia_r.tibia_upper_r.torque.X	femur_med_tibia_r.tibia_upper_r.torque.Y	femur_med_tibia_r.tibia_upper_r.torque.Z	femur_med_tibia_r.femur_med_r.force.X	femur_med_tibia_r.femur_med_r.force.Y	femur_med_tibia_r.femur_med_r.force.Z	femur_med_tibia_r.femur_med_r.torque.X	femur_med_tibia_r.femur_med_r.torque.Y	femur_med_tibia_r.femur_med_r.torque.Z	femur_lat_tibia_r.tibia_upper_r.force.X	femur_lat_tibia_r.tibia_upper_r.force.Y	femur_lat_tibia_r.tibia_upper_r.force.Z	femur_lat_tibia_r.tibia_upper_r.torque.X	femur_lat_tibia_r.tibia_upper_r.torque.Y	femur_lat_tibia_r.tibia_upper_r.torque.Z	femur_lat_tibia_r.femur_lat_r.force.X	femur_lat_tibia_r.femur_lat_r.force.Y	femur_lat_tibia_r.femur_lat_r.force.Z	femur_lat_tibia_r.femur_lat_r.torque.X	femur_lat_tibia_r.femur_lat_r.torque.Y	femur_lat_tibia_r.femur_lat_r.torque.Z	aACL_R	pACL_R	aPCL_R	pPCL_R	aMCL_R	mMCL_R	pMCL_R	aLCL_R	mLCL_R	pLCL_R	aPCL_L	pPCL_L	aMCL_L	aLCL_L	ground_prescribedForce_-40_fx	ground_prescribedForce_-40_fy	ground_prescribedForce_-40_fz
      0.41432917	      7.69778033	      5.76894237	      6.17655490	      2.70528932	      3.22909412	      3.25598801	      3.98594698	      4.28948991	      6.06708641	      6.67509769	      1.60526241	      5.71671827	      4.21259243	      2.97169382	      2.49914965	      4.06929042	      4.31785758	      2.27799180	      1.62726181	      3.72260912	      5.65742526	      4.22452560	     22.83473813	     13.17736222	      3.69128668	      2.88457699	      4.20979639	     22.11199980	     13.81783203	     14.33610227	     19.17398794	      0.00000000	      1.09544950	     10.69683258	     11.88669441	      2.80799068	      3.47468666	     12.37417466	      3.83152458	      7.74642493	      9.43815030	      5.97599540	      1.27388631	      7.69778033	      5.76894237	      6.17655490	      2.70528932	      3.22909412	      3.25598801	      8.96327666	      4.16350583	      7.86439945	      7.34466020	      1.54611519	      5.71671827	      4.21259243	      2.97169382	      2.49914965	      4.06929042	      4.14764084	      2.27799180	      1.58622377	      3.72260912	      5.65742526	      4.22452560	     22.83473813	     13.17736222	      3.69128668	      2.88457699	      4.20979639	     10.91428336	      6.71553130	      7.70599781	      8.28524419	     14.47956187	      6.72357075	     31.99525416	     42.71599882	      2.85659060	      3.01237762	      8.63779737	      4.44532827	     12.71271015	      2.03853603	      5.39596050	      1.71227736	     25.44353496	     25.44353496	      9.17153945	      9.17153945	     26.95869651	     26.95869651	      2.76307435	     50.99597937	     -9.56042239	      5.21997485	     -0.02578839	      1.48581788	     -2.76307435	    -50.99597937	      9.56042239	     -1.74637766	      0.02558040	     -0.48301696	     -3.31599387	     20.97615968	     -3.40468921	      0.94473225	     -0.02138609	     -1.00501789	      3.31599387	    -20.97615968	      3.40468921	      0.28075727	      0.00368718	     -0.29758878	     87.94027340	     82.37926537	     28.84249325	    -13.88702161	      2.16461223	     36.20845248	    -87.94027340	    -82.37926537	    -28.84249325	      3.06619029	     -2.98745015	     -0.86575036	    242.10608316	     94.30643070	    -25.29047789	     12.12030625	     -4.55670424	     98.86557246	   -242.10608316	    -94.30643070	     25.29047789	     -1.93941411	      3.95053433	     -3.66412125	      0.00000000	      0.00000000	      0.00000000	      0.00000000	      0.00000000	      0.00000000	      0.00000000	      0.00000000	      0.00000000	      0.00000000	      0.00000000	      0.00000000	      0.00000000	      0.00000000	      0.00000000	      0.00000000	      0.00000000	      0.00000000	      0.00000000	      0.00000000	      0.00000000	      0.00000000	      0.00000000	      0.00000000	      0.00000000	      0.00000000	      0.00000000	      0.00000000	      0.00000000	      0.00000000	      0.00000000	      0.00000000	      0.00000000	      0.00000000	      0.00000000	      0.00000000	      0.00000000	      0.00000000	      0.00000000	      0.00000000	      0.00000000	      0.00000000	      0.00000000	      0.00000000	      0.00000000	      0.00000000	      0.00000000	      0.00000000	     12.70629396	     11.91889301	    174.41791285	     93.70971763	      6.39372984	      7.29414367	      4.98626462	     -2.32802833	      0.00000000	      0.00000000	      0.00000000	      0.00000000	      0.00000001	      0.00000000	     84.26488000	    -70.70660000	      0.00000000
      0.41481205	      7.69683501	      5.76829169	      6.17584959	      2.70499714	      3.22877793	      3.25558898	      3.98639815	      4.28916933	      6.06606995	      6.67530502	      1.60543761	      5.71606595	      4.21214158	      2.97136107	      2.49886313	      4.06877397	      4.31700213	      2.27774420	      1.62707470	      3.72218953	      5.65678564	      4.22403925	     22.83355772	     13.17603354	      3.69087932	      2.88438599	      4.20905139	     22.11513891	     13.81770183	     14.33624202	     19.17429029	      0.00000000	      1.09510504	     10.69366243	     11.88264300	      2.80500068	      3.48332914	     12.37400554	      3.82860718	      7.74327262	      9.44090246	      5.98607829	      1.27430937	      7.69683501	      5.76829169	      6.17584959	      2.70499714	      3.22877793	      3.25558898	      8.96190433	      4.16299940	      7.86325563	      7.34384916	      1.54594897	      5.71606595	      4.21214158	      2.97136107	      2.49886313	      4.06877397	      4.14732124	      2.27774420	      1.58605027	      3.72218953	      5.65678564	      4.22403925	     22.83355772	     13.17603354	      3.69087932	      2.88438599	      4.20905139	     10.91272593	      6.71475633	      7.70509140	      8.28427447	     14.47640912	      6.72210490	     31.98959990	     42.71376629	      2.85587351	      3.01178888	      8.63662435	      4.44462908	     12.71107400	      2.03833001	      5.39517767	      1.71204652	     25.44078068	     25.44078068	      9.17045834	      9.17045834	     26.95772537	     26.95772537	      2.76307435	     50.99597937	     -9.56042239	      5.21997485	     -0.02578839	      1.48581788	     -2.76307435	    -50.99597937	      9.56042239	     -1.74637766	      0.02558040	     -0.48301696	     -3.31599387	     20.97615968	     -3.40468921	      0.94473225	     -0.02138609	     -1.00501789	      3.31599387	    -20.97615968	      3.40468921	      0.28075727	      0.00368718	     -0.29758878	     88.12132864	     82.49975383	     28.87007861	    -13.90136006	      2.16899231	     36.28375419	    -88.12132864	    -82.49975383	    -28.87007861	      3.07034188	     -2.99312773	     -0.86872478	    241.91233190	     94.15183873	    -25.23335168	     12.09386318	     -4.55201713	     98.78772843	   -241.91233190	    -94.15183873	     25.23335168	     -1.93559348	      3.94560853	     -3.66298012	      0.00000000	      0.00000000	      0.00000000	      0.00000000	      0.00000000	      0.00000000	      0.00000000	      0.00000000	      0.00000000	      0.00000000	      0.00000000	      0.00000000	      0.00000000	      0.00000000	      0.00000000	      0.00000000	      0.00000000	      0.00000000	      0.00000000	      0.00000000	      0.00000000	      0.00000000	      0.00000000	      0.00000000	      0.00000000	      0.00000000	      0.00000000	      0.00000000	      0.00000000	      0.00000000	      0.00000000	      0.00000000	      0.00000000	      0.00000000	      0.00000000	      0.00000000	      0.00000000	      0.00000000	      0.00000000	      0.00000000	      0.00000000	      0.00000000	      0.00000000	      0.00000000	      0.00000000	      0.00000000	      0.00000000	      0.00000000	     12.71896155	     11.92734800	    174.36546670	     93.69568162	      6.36973036	      7.27293272	      4.95936857	     -2.34161679	      0.00000000	      0.00000000	      0.00000000	      0.00000000	      0.00000001	      0.00000000	     84.26488000	    -70.70660000	      0.00000000
      0.41606068	      7.69441779	      5.76662784	      6.17404606	      2.70425000	      3.22796941	      3.25456867	      3.98461974	      4.28654038	      6.06151071	      6.66604608	      1.60350932	      5.71439791	      4.21098872	      2.97051020	      2.49813049	      4.06745337	      4.31384213	      2.27711106	      1.62508423	      3.72111659	      5.65515011	      4.22279561	     22.83053936	     13.17263609	      3.68983767	      2.88389759	      4.20714591	     22.11811473	     13.80709275	     14.32607275	     19.16425686	      0.00000000	      1.09089059	     10.67157264	     11.87390805	      2.79685434	      3.50464074	     12.37962497	      3.81884608	      7.73242603	      9.44942072	      6.01631383	      1.27670649	      7.69441779	      5.76662784	      6.17404606	      2.70425000	      3.22796941	      3.25456867	      8.95839503	      4.16170446	      7.86033076	      7.34177526	      1.54552391	      5.71439791	      4.21098872	      2.97051020	      2.49813049	      4.06745337	      4.14650403	      2.27711106	      1.58560662	      3.72111659	      5.65515011	      4.22279561	     22.83053936	     13.17263609	      3.68983767	      2.88389759	      4.20714591	     10.90874343	      6.71277472	      7.70277368	      8.28179487	     14.46834095	      6.71835366	     31.97513828	     42.70805691	      2.85403492	      3.01028140	      8.63362489	      4.44284109	     12.70688853	      2.03780319	      5.39317801	      1.71145682	     25.43373776	     25.43373776	      9.16769391	      9.16769391	     26.95524211	     26.95524211	      2.76307435	     50.99597937	     -9.56042239	      5.21997485	     -0.02578839	      1.48581788	     -2.76307435	    -50.99597937	      9.56042239	     -1.74637766	      0.02558040	     -0.48301696	     -3.31599387	     20.97615968	     -3.40468921	      0.94473225	     -0.02138609	     -1.00501789	      3.31599387	    -20.97615968	      3.40468921	      0.28075727	      0.00368718	     -0.29758878	     88.28631416	     82.93882325	     28.89702859	    -13.92182782	      2.17377130	     36.35114578	    -88.28631416	    -82.93882325	    -28.89702859	      3.08217105	     -2.99929053	     -0.86441979	    241.68412654	     94.04940965	    -25.25183431	     12.09890182	     -4.54602224	     98.69629339	   -241.68412654	    -94.04940965	     25.25183431	     -1.93358720	      3.94054161	     -3.65962964	      0.00000000	      0.00000000	      0.00000000	      0.00000000	      0.00000000	      0.00000000	      0.00000000	      0.00000000	      0.00000000	      0.00000000	      0.00000000	      0.00000000	      0.00000000	      0.00000000	      0.00000000	      0.00000000	      0.00000000	      0.00000000	      0.00000000	      0.00000000	      0.00000000	      0.00000000	      0.00000000	      0.00000000	      0.00000000	      0.00000000	      0.00000000	      0.00000000	      0.00000000	      0.00000000	      0.00000000	      0.00000000	      0.00000000	      0.00000000	      0.00000000	      0.00000000	      0.00000000	      0.00000000	      0.00000000	      0.00000000	      0.00000000	      0.00000000	      0.00000000	      0.00000000	      0.00000000	      0.00000000	      0.00000000	      0.00000000	     12.73682041	     11.92853443	    174.13411308	     93.50563196	      6.23778033	      7.14524923	      4.81613456	     -2.45767336	      0.00000000	      0.00000000	      0.00000000	      0.00000000	      0.00000001	      0.00000000	     84.26488000	    -70.70660000	      0.00000000
      0.41730930	      7.69203925	      5.76499060	      6.17227137	      2.70351480	      3.22717381	      3.25356467	      3.98443030	      4.28479209	      6.05873134	      6.66644582	      1.60341731	      5.71275653	      4.20985427	      2.96967293	      2.49740956	      4.06615390	      4.31144670	      2.27648803	      1.62440404	      3.72006081	      5.65354073	      4.22157187	     22.82756928	     13.16929304	      3.68881266	      2.88341702	      4.20527024	     22.12378903	     13.80051228	     14.32043734	     19.15842275	      0.00000000	      1.08857303	     10.64979631	     11.86837097	      2.78822552	      3.52477093	     12.38624985	      3.80755798	      7.71948236	      9.45633034	      6.05196731	      1.28021949	      7.69203925	      5.76499060	      6.17227137	      2.70351480	      3.22717381	      3.25356467	      8.95494164	      4.16043024	      7.85745259	      7.33973450	      1.54510565	      5.71275653	      4.20985427	      2.96967293	      2.49740956	      4.06615390	      4.14569991	      2.27648803	      1.58517005	      3.72006081	      5.65354073	      4.22157187	     22.82756928	     13.16929304	      3.68881266	      2.88341702	      4.20527024	     10.90482456	      6.71082480	      7.70049304	      8.27935495	     14.46039275	      6.71465818	     31.96090317	     42.70243787	      2.85221859	      3.00879508	      8.63067341	      4.44108151	     12.70276755	      2.03728480	      5.39121345	      1.71087744	     25.42680733	     25.42680733	      9.16497368	      9.16497368	     26.95279857	     26.95279857	      2.76307435	     50.99597937	     -9.56042239	      5.21997485	     -0.02578839	      1.48581788	     -2.76307435	    -50.99597937	      9.56042239	     -1.74637766	      0.02558040	     -0.48301696	     -3.31599387	     20.97615968	     -3.40468921	      0.94473225	     -0.02138609	     -1.00501789	      3.31599387	    -20.97615968	      3.40468921	      0.28075727	      0.00368718	     -0.29758878	     88.81074288	     83.19153950	     29.04625998	    -13.99006957	      2.18640133	     36.56957855	    -88.81074288	    -83.19153950	    -29.04625998	      3.09365501	     -3.01672429	     -0.87498249	    241.08636272	     94.29694897	    -25.38750312	     12.15532313	     -4.53484938	     98.44949734	   -241.08636272	    -94.29694897	     25.38750312	     -1.93615697	      3.93372008	     -3.63840357	      0.00000000	      0.00000000	      0.00000000	      0.00000000	      0.00000000	      0.00000000	      0.00000000	      0.00000000	      0.00000000	      0.00000000	      0.00000000	      0.00000000	      0.00000000	      0.00000000	      0.00000000	      0.00000000	      0.00000000	      0.00000000	      0.00000000	      0.00000000	      0.00000000	      0.00000000	      0.00000000	      0.00000000	      0.00000000	      0.00000000	      0.00000000	      0.00000000	      0.00000000	      0.00000000	      0.00000000	      0.00000000	      0.00000000	      0.00000000	      0.00000000	      0.00000000	      0.00000000	      0.00000000	      0.00000000	      0.00000000	      0.00000000	      0.00000000	      0.00000000	      0.00000000	      0.00000000	      0.00000000	      0.00000000	      0.00000000	     12.82530299	     12.01240607	    174.05252661	     93.63804016	      6.32834428	      7.24331523	      4.90005444	     -2.29639433	      0.00000000	      0.00000000	      0.00000000	      0.00000000	      0.00000001	      0.00000000	     84.26488000	    -70.70660000	      0.00000000
